<svg width="18" height="18" viewBox="0 0 18 18" fill="none" xmlns="http://www.w3.org/2000/svg">
<g id="&#236;&#149;&#132;&#236;&#157;&#180;&#236;&#189;&#152;/Frame 632973">
<path id="Vector" d="M13.7095 5.63577C13.8829 5.45633 13.9787 5.216 13.9766 4.96654C13.9744 4.71708 13.8744 4.47845 13.698 4.30205C13.5215 4.12565 13.2829 4.02559 13.0335 4.02342C12.784 4.02125 12.5437 4.11715 12.3642 4.29046L9 7.65469L5.63577 4.29046C5.548 4.19959 5.44302 4.12711 5.32694 4.07724C5.21086 4.02738 5.08602 4.00113 4.95969 4.00004C4.83336 3.99894 4.70808 4.02301 4.59115 4.07085C4.47422 4.11869 4.368 4.18933 4.27867 4.27867C4.18933 4.368 4.11869 4.47422 4.07085 4.59115C4.02301 4.70808 3.99894 4.83336 4.00004 4.95969C4.00113 5.08602 4.02738 5.21086 4.07724 5.32694C4.12711 5.44302 4.19959 5.548 4.29046 5.63577L7.65469 9L4.29046 12.3642C4.19959 12.452 4.12711 12.557 4.07724 12.6731C4.02738 12.7891 4.00113 12.914 4.00004 13.0403C3.99894 13.1666 4.02301 13.2919 4.07085 13.4088C4.11869 13.5258 4.18933 13.632 4.27867 13.7213C4.368 13.8107 4.47422 13.8813 4.59115 13.9292C4.70808 13.977 4.83336 14.0011 4.95969 14C5.08602 13.9989 5.21086 13.9726 5.32694 13.9228C5.44302 13.8729 5.548 13.8004 5.63577 13.7095L9 10.3453L12.3642 13.7095C12.452 13.8004 12.557 13.8729 12.6731 13.9228C12.7891 13.9726 12.914 13.9989 13.0403 14C13.1666 14.0011 13.2919 13.977 13.4088 13.9292C13.5258 13.8813 13.632 13.8107 13.7213 13.7213C13.8107 13.632 13.8813 13.5258 13.9292 13.4088C13.977 13.2919 14.0011 13.1666 14 13.0403C13.9989 12.914 13.9726 12.7891 13.9228 12.6731C13.8729 12.557 13.8004 12.452 13.7095 12.3642L10.3453 9L13.7095 5.63577Z" fill="white"/>
</g>
</svg>
