<svg width="24" height="24" viewBox="0 0 24 24" fill="none" xmlns="http://www.w3.org/2000/svg">
<g id="&#236;&#149;&#132;&#236;&#157;&#180;&#236;&#189;&#152;/stash:plus-solid">
<path id="Vector" d="M12 4.75C12.69 4.75 13.25 5.31 13.25 6V10.75H18C18.3315 10.75 18.6495 10.8817 18.8839 11.1161C19.1183 11.3505 19.25 11.6685 19.25 12C19.25 12.3315 19.1183 12.6495 18.8839 12.8839C18.6495 13.1183 18.3315 13.25 18 13.25H13.25V18C13.25 18.3315 13.1183 18.6495 12.8839 18.8839C12.6495 19.1183 12.3315 19.25 12 19.25C11.6685 19.25 11.3505 19.1183 11.1161 18.8839C10.8817 18.6495 10.75 18.3315 10.75 18V13.25H6C5.66848 13.25 5.35054 13.1183 5.11612 12.8839C4.8817 12.6495 4.75 12.3315 4.75 12C4.75 11.6685 4.8817 11.3505 5.11612 11.1161C5.35054 10.8817 5.66848 10.75 6 10.75H10.75V6C10.75 5.31 11.31 4.75 12 4.75Z" fill="#D9D9D9"/>
</g>
</svg>
