<svg width="31" height="30" viewBox="0 0 31 30" fill="none" xmlns="http://www.w3.org/2000/svg">
<g id="&#235;&#179;&#132;&#236;&#160;&#144;/24">
<path id="Vector" d="M11.2333 10.2949L14.4808 3.75493C14.5753 3.56566 14.7207 3.40647 14.9007 3.2952C15.0806 3.18394 15.288 3.125 15.4996 3.125C15.7111 3.125 15.9185 3.18394 16.0985 3.2952C16.2784 3.40647 16.4238 3.56566 16.5183 3.75493L19.7658 10.2949L27.0258 11.3499C27.2352 11.379 27.4322 11.4663 27.5944 11.6019C27.7566 11.7376 27.8773 11.9161 27.9429 12.1171C28.0084 12.3181 28.0162 12.5334 27.9652 12.7386C27.9142 12.9438 27.8066 13.1305 27.6546 13.2774L22.4021 18.3649L23.6421 25.5524C23.8008 26.4749 22.8258 27.1774 21.9921 26.7424L15.4996 23.3474L9.00581 26.7424C8.17331 27.1787 7.19832 26.4749 7.35707 25.5512L8.59707 18.3637L3.34457 13.2762C3.1933 13.1291 3.08631 12.9426 3.03577 12.7378C2.98523 12.533 2.99316 12.3181 3.05865 12.1176C3.12415 11.9171 3.24459 11.739 3.40628 11.6035C3.56797 11.468 3.76442 11.3806 3.97332 11.3512L11.2333 10.2949Z" stroke="#5A59F2" stroke-width="1.5" stroke-linecap="round" stroke-linejoin="round"/>
</g>
</svg>
