<svg width="31" height="30" viewBox="0 0 31 30" fill="none" xmlns="http://www.w3.org/2000/svg">
<g id="&#235;&#179;&#132;&#236;&#160;&#144;/24">
<path id="Vector" d="M17.3873 3.92368C16.5723 2.44243 14.4273 2.44243 13.611 3.92368C12.5376 5.87416 11.6528 7.92261 10.9685 10.0412C10.9362 10.1241 10.8795 10.1952 10.8058 10.245C10.7321 10.2948 10.6449 10.3209 10.556 10.3199C8.72221 10.3676 6.89439 10.5498 5.08725 10.8649C3.416 11.1562 2.67975 13.1612 3.94975 14.4024C4.10975 14.5591 4.27142 14.7149 4.43475 14.8699C5.65827 16.0285 6.95377 17.1085 8.3135 18.1037C8.37528 18.1447 8.42208 18.2046 8.44687 18.2745C8.47167 18.3444 8.47312 18.4204 8.451 18.4912C7.76455 20.5508 7.27405 22.6706 6.986 24.8224C6.7485 26.6024 8.6335 27.6949 10.1048 26.9399C11.8909 26.0245 13.5987 24.9639 15.211 23.7687C15.2954 23.709 15.3963 23.6769 15.4998 23.6769C15.6032 23.6769 15.7041 23.709 15.7885 23.7687C17.3999 24.9653 19.1078 26.026 20.8948 26.9399C22.366 27.6949 24.251 26.6024 24.0135 24.8224C23.7259 22.6707 23.2358 20.5508 22.5498 18.4912C22.5276 18.4204 22.5291 18.3444 22.5539 18.2745C22.5787 18.2046 22.6255 18.1447 22.6873 18.1037C24.2279 16.976 25.6858 15.7395 27.0498 14.4037C28.3198 13.1612 27.5835 11.1562 25.9123 10.8649C24.1047 10.5497 22.2765 10.3675 20.4423 10.3199C20.3535 10.3207 20.2667 10.2944 20.1932 10.2446C20.1198 10.1948 20.0632 10.1239 20.031 10.0412C19.3489 7.9218 18.4627 5.87315 17.3873 3.92368Z" fill="#5A59F2"/>
</g>
</svg>
